# Blender v2.79 (sub 0) OBJ File: 'blenderScene1.blend'
# www.blender.org
mtllib pond.mtl
o p2.002_Cube.020
v -487.943695 -746.468201 1399.486328
v -487.943695 -746.468262 2320.388672
v -487.943695 -741.243958 1399.486328
v -487.943695 -741.244019 2320.388672
v 432.958405 -746.468201 1399.486328
v 432.958405 -746.468262 2320.388672
v 432.958405 -741.243958 1399.486328
v 432.958405 -741.244019 2320.388672
vt 0.500070 0.000000
vt 0.625052 0.500000
vt 0.500070 0.500000
vt 0.000000 1.000000
vt 0.500070 0.500000
vt 0.500070 1.000000
vt 1.000000 0.500000
vt 0.875017 0.000000
vt 1.000000 0.000000
vt 0.000000 0.000000
vt 0.000000 0.500000
vt 0.750035 0.000000
vt 0.875018 0.500000
vt 0.750035 0.500000
vt 0.750035 0.500000
vt 0.625052 0.000000
vt 0.750035 0.000000
vt 0.625052 0.000000
vt 0.000000 0.500000
vt 0.875018 0.500000
vt 0.625053 0.500000
vn -1.0000 0.0000 0.0000
vn 0.0000 1.0000 0.0000
vn 1.0000 0.0000 0.0000
vn 0.0000 -1.0000 -0.0000
vn 0.0000 0.0000 -1.0000
vn 0.0000 0.0000 1.0000
usemtl None
s off
f 2/1/1 3/2/1 1/3/1
f 4/4/2 7/5/2 3/6/2
f 8/7/3 5/8/3 7/9/3
f 6/10/4 1/3/4 5/11/4
f 7/12/5 1/13/5 3/14/5
f 4/15/6 6/16/6 8/17/6
f 2/1/1 4/18/1 3/2/1
f 4/4/2 8/19/2 7/5/2
f 8/7/3 6/20/3 5/8/3
f 6/10/4 2/1/4 1/3/4
f 7/12/5 5/8/5 1/13/5
f 4/15/6 2/21/6 6/16/6
