# Blender v2.79 (sub 0) OBJ File: 'blenderScene1.blend'
# www.blender.org
mtllib pyramid01.mtl
o p0.005_Cube.023
v 635.763306 -40.272709 4990.345703
v 469.962036 -40.272572 4653.896484
v 299.313477 -40.272778 5156.146973
v 133.512695 -40.272640 4819.697754
v 1632.484375 -1085.275391 5328.998535
v 808.614746 -1085.274780 3657.175537
v -39.339111 -1085.275879 6152.867676
v -863.208740 -1085.275391 4481.044434
vt 0.199688 0.399377
vt 0.500000 0.000000
vt 0.300312 0.399377
vt 0.500000 0.000000
vt 1.000000 0.999999
vt 0.500000 1.000000
vt 0.500000 0.999999
vt 0.300312 0.600623
vt 0.000000 1.000000
vt 0.199688 0.600623
vt 0.000000 0.000001
vt 1.000000 0.000000
vn 0.3600 0.5802 0.7306
vn 0.0000 -1.0000 -0.0000
vn 0.7306 0.5802 -0.3600
vn -0.3600 0.5802 -0.7306
vn -0.7306 0.5802 0.3600
vn -0.0000 1.0000 0.0000
usemtl None
s off
f 3/1/1 5/2/1 1/3/1
f 7/4/2 6/5/2 5/6/2
f 1/3/3 6/7/3 2/8/3
f 2/8/4 8/9/4 4/10/4
f 3/1/5 8/9/5 7/11/5
f 2/8/6 3/1/6 1/3/6
f 3/1/1 7/11/1 5/2/1
f 7/4/2 8/12/2 6/5/2
f 1/3/3 5/2/3 6/7/3
f 2/8/4 6/7/4 8/9/4
f 3/1/5 4/10/5 8/9/5
f 2/8/6 4/10/6 3/1/6
