# Blender v2.79 (sub 0) OBJ File: 'blenderScene1.blend'
# www.blender.org
mtllib pyramid04.mtl
o p0.006_Cube.036
v -1301.043335 -801.327820 2328.404297
v -2051.812012 -801.327637 3270.444824
v -1205.407593 -157.971390 3174.809082
v -359.002930 -801.328003 3079.173340
v -1109.771973 -801.327881 4021.213867
vt 1.000000 1.000000
vt 0.000000 1.000000
vt 0.500000 0.500000
vt 0.000000 0.000000
vt 1.000000 0.000000
vn -0.5709 0.6834 -0.4550
vn 0.5709 0.6834 0.4550
vn 0.4550 0.6834 -0.5709
vn -0.4550 0.6834 0.5709
vn 0.0000 1.0000 0.0000
usemtl None
s off
f 1/1/1 2/2/1 3/3/1
f 3/3/2 5/4/2 4/5/2
f 3/3/3 4/5/3 1/1/3
f 3/3/4 2/2/4 5/4/4
f 4/5/5 2/2/5 5/4/5
f 4/5/5 1/1/5 2/2/5
