# Blender v2.79 (sub 0) OBJ File: 'blenderScene1.blend'
# www.blender.org
mtllib pyramid00.mtl
o p0.010_Cube.030
v 585.538208 12.385269 4973.281250
v 452.897217 12.385380 4704.121582
v 316.378357 12.385214 5105.921875
v 183.737732 12.385324 4836.762695
v 635.762817 -40.272713 4990.346191
v 469.961884 -40.272572 4653.896973
v 299.313660 -40.272781 5156.146484
v 133.513199 -40.272644 4819.698242
vt 0.999999 0.000000
vt 1.000000 0.999999
vt 1.000000 0.999999
vt 0.000001 0.000001
vt 0.999999 0.000000
vt 0.000001 0.000001
vt 0.000000 1.000000
vt 0.000000 1.000000
vn 0.3600 0.5802 0.7306
vn -0.7306 0.5802 0.3600
vn 0.0000 -1.0000 -0.0000
vn 0.7306 0.5802 -0.3600
vn -0.3600 0.5802 -0.7306
vn -0.0000 1.0000 0.0000
usemtl None
s off
f 3/1/1 5/2/1 1/3/1
f 4/4/2 7/5/2 3/1/2
f 5/2/3 7/5/3 8/6/3
f 5/2/3 8/6/3 6/7/3
f 1/3/4 6/7/4 2/8/4
f 6/7/5 4/4/5 2/8/5
f 2/8/6 3/1/6 1/3/6
f 3/1/1 7/5/1 5/2/1
f 4/4/2 8/6/2 7/5/2
f 1/3/4 5/2/4 6/7/4
f 6/7/5 8/6/5 4/4/5
f 2/8/6 4/4/6 3/1/6
